<svg width="100" height="100" viewBox="0 0 100 100" fill="none" xmlns="http://www.w3.org/2000/svg">
    <defs>
        <radialGradient id="petalGradient" cx="50%" cy="30%" r="70%">
            <stop offset="0%" style="stop-color:rgba(247,243,233,0.9);stop-opacity:1" />
            <stop offset="70%" style="stop-color:rgba(232,220,192,0.8);stop-opacity:1" />
            <stop offset="100%" style="stop-color:rgba(214,158,46,0.6);stop-opacity:1" />
        </radialGradient>

        <radialGradient id="centerGradient" cx="50%" cy="50%" r="50%">
            <stop offset="0%" style="stop-color:rgba(246,213,92,1);stop-opacity:1" />
            <stop offset="100%" style="stop-color:rgba(214,158,46,1);stop-opacity:1" />
        </radialGradient>

        <filter id="softGlow">
            <feGaussianBlur stdDeviation="2" result="coloredBlur" />
            <feMerge>
                <feMergeNode in="coloredBlur" />
                <feMergeNode in="SourceGraphic" />
            </feMerge>
        </filter>

        <filter id="dropShadow">
            <feDropShadow dx="0" dy="2" stdDeviation="3" flood-color="rgba(26,26,46,0.3)" />
        </filter>
    </defs>

    <!-- Outer petals (8 petals) -->
    <g class="outer-petals" filter="url(#dropShadow)">
        <!-- Top petal -->
        <ellipse cx="50" cy="25" rx="8" ry="20" fill="url(#petalGradient)"
            transform="rotate(0 50 50)" opacity="0.9" />

        <!-- Top-right petal -->
        <ellipse cx="50" cy="25" rx="8" ry="20" fill="url(#petalGradient)"
            transform="rotate(45 50 50)" opacity="0.85" />

        <!-- Right petal -->
        <ellipse cx="50" cy="25" rx="8" ry="20" fill="url(#petalGradient)"
            transform="rotate(90 50 50)" opacity="0.9" />

        <!-- Bottom-right petal -->
        <ellipse cx="50" cy="25" rx="8" ry="20" fill="url(#petalGradient)"
            transform="rotate(135 50 50)" opacity="0.85" />

        <!-- Bottom petal -->
        <ellipse cx="50" cy="25" rx="8" ry="20" fill="url(#petalGradient)"
            transform="rotate(180 50 50)" opacity="0.9" />

        <!-- Bottom-left petal -->
        <ellipse cx="50" cy="25" rx="8" ry="20" fill="url(#petalGradient)"
            transform="rotate(225 50 50)" opacity="0.85" />

        <!-- Left petal -->
        <ellipse cx="50" cy="25" rx="8" ry="20" fill="url(#petalGradient)"
            transform="rotate(270 50 50)" opacity="0.9" />

        <!-- Top-left petal -->
        <ellipse cx="50" cy="25" rx="8" ry="20" fill="url(#petalGradient)"
            transform="rotate(315 50 50)" opacity="0.85" />
    </g>

    <!-- Inner petals (6 petals, smaller) -->
    <g class="inner-petals" filter="url(#softGlow)">
        <!-- Top petal -->
        <ellipse cx="50" cy="35" rx="6" ry="12" fill="url(#petalGradient)"
            transform="rotate(0 50 50)" opacity="0.95" />

        <!-- Top-right petal -->
        <ellipse cx="50" cy="35" rx="6" ry="12" fill="url(#petalGradient)"
            transform="rotate(60 50 50)" opacity="0.9" />

        <!-- Bottom-right petal -->
        <ellipse cx="50" cy="35" rx="6" ry="12" fill="url(#petalGradient)"
            transform="rotate(120 50 50)" opacity="0.95" />

        <!-- Bottom petal -->
        <ellipse cx="50" cy="35" rx="6" ry="12" fill="url(#petalGradient)"
            transform="rotate(180 50 50)" opacity="0.9" />

        <!-- Bottom-left petal -->
        <ellipse cx="50" cy="35" rx="6" ry="12" fill="url(#petalGradient)"
            transform="rotate(240 50 50)" opacity="0.95" />

        <!-- Top-left petal -->
        <ellipse cx="50" cy="35" rx="6" ry="12" fill="url(#petalGradient)"
            transform="rotate(300 50 50)" opacity="0.9" />
    </g>

    <!-- Center of flower -->
    <circle cx="50" cy="50" r="8" fill="url(#centerGradient)" filter="url(#softGlow)" />

    <!-- Center details -->
    <g class="center-details" opacity="0.7">
        <circle cx="50" cy="50" r="6" fill="none" stroke="rgba(214,158,46,0.8)" stroke-width="0.5" />
        <circle cx="50" cy="50" r="4" fill="none" stroke="rgba(214,158,46,0.6)" stroke-width="0.5" />
        <circle cx="50" cy="50" r="2" fill="rgba(214,158,46,0.9)" />
    </g>

    <!-- Subtle petal veins -->
    <g class="petal-veins" opacity="0.3" stroke="rgba(214,158,46,0.4)" stroke-width="0.5"
        fill="none">
        <!-- Outer petal veins -->
        <path d="M50,30 Q52,40 50,50" transform="rotate(0 50 50)" />
        <path d="M50,30 Q48,40 50,50" transform="rotate(0 50 50)" />

        <path d="M50,30 Q52,40 50,50" transform="rotate(45 50 50)" />
        <path d="M50,30 Q48,40 50,50" transform="rotate(45 50 50)" />

        <path d="M50,30 Q52,40 50,50" transform="rotate(90 50 50)" />
        <path d="M50,30 Q48,40 50,50" transform="rotate(90 50 50)" />

        <path d="M50,30 Q52,40 50,50" transform="rotate(135 50 50)" />
        <path d="M50,30 Q48,40 50,50" transform="rotate(135 50 50)" />

        <path d="M50,30 Q52,40 50,50" transform="rotate(180 50 50)" />
        <path d="M50,30 Q48,40 50,50" transform="rotate(180 50 50)" />

        <path d="M50,30 Q52,40 50,50" transform="rotate(225 50 50)" />
        <path d="M50,30 Q48,40 50,50" transform="rotate(225 50 50)" />

        <path d="M50,30 Q52,40 50,50" transform="rotate(270 50 50)" />
        <path d="M50,30 Q48,40 50,50" transform="rotate(270 50 50)" />

        <path d="M50,30 Q52,40 50,50" transform="rotate(315 50 50)" />
        <path d="M50,30 Q48,40 50,50" transform="rotate(315 50 50)" />
    </g>
</svg>