<svg xmlns="http://www.w3.org/2000/svg" width="100" height="100" fill="none" viewBox="0 0 100 100"><defs><radialGradient id="petalGradient" cx="50%" cy="30%" r="70%"><stop offset="0%" style="stop-color:rgba(247,243,233,.9);stop-opacity:1"/><stop offset="70%" style="stop-color:rgba(232,220,192,.8);stop-opacity:1"/><stop offset="100%" style="stop-color:rgba(214,158,46,.6);stop-opacity:1"/></radialGradient><radialGradient id="centerGradient" cx="50%" cy="50%" r="50%"><stop offset="0%" style="stop-color:#f6d55c;stop-opacity:1"/><stop offset="100%" style="stop-color:#d69e2e;stop-opacity:1"/></radialGradient><filter id="softGlow"><feGaussianBlur result="coloredBlur" stdDeviation="2"/><feMerge><feMergeNode in="coloredBlur"/><feMergeNode in="SourceGraphic"/></feMerge></filter><filter id="dropShadow"><feDropShadow dx="0" dy="2" flood-color="rgba(26,26,46,0.3)" stdDeviation="3"/></filter></defs><g class="outer-petals" filter="url(#dropShadow)"><ellipse cx="50" cy="25" fill="url(#petalGradient)" opacity=".9" rx="8" ry="20" transform="rotate(0 50 50)"/><ellipse cx="50" cy="25" fill="url(#petalGradient)" opacity=".85" rx="8" ry="20" transform="rotate(45 50 50)"/><ellipse cx="50" cy="25" fill="url(#petalGradient)" opacity=".9" rx="8" ry="20" transform="rotate(90 50 50)"/><ellipse cx="50" cy="25" fill="url(#petalGradient)" opacity=".85" rx="8" ry="20" transform="rotate(135 50 50)"/><ellipse cx="50" cy="25" fill="url(#petalGradient)" opacity=".9" rx="8" ry="20" transform="rotate(180 50 50)"/><ellipse cx="50" cy="25" fill="url(#petalGradient)" opacity=".85" rx="8" ry="20" transform="rotate(225 50 50)"/><ellipse cx="50" cy="25" fill="url(#petalGradient)" opacity=".9" rx="8" ry="20" transform="rotate(270 50 50)"/><ellipse cx="50" cy="25" fill="url(#petalGradient)" opacity=".85" rx="8" ry="20" transform="rotate(315 50 50)"/></g><g class="inner-petals" filter="url(#softGlow)"><ellipse cx="50" cy="35" fill="url(#petalGradient)" opacity=".95" rx="6" ry="12" transform="rotate(0 50 50)"/><ellipse cx="50" cy="35" fill="url(#petalGradient)" opacity=".9" rx="6" ry="12" transform="rotate(60 50 50)"/><ellipse cx="50" cy="35" fill="url(#petalGradient)" opacity=".95" rx="6" ry="12" transform="rotate(120 50 50)"/><ellipse cx="50" cy="35" fill="url(#petalGradient)" opacity=".9" rx="6" ry="12" transform="rotate(180 50 50)"/><ellipse cx="50" cy="35" fill="url(#petalGradient)" opacity=".95" rx="6" ry="12" transform="rotate(240 50 50)"/><ellipse cx="50" cy="35" fill="url(#petalGradient)" opacity=".9" rx="6" ry="12" transform="rotate(300 50 50)"/></g><circle cx="50" cy="50" r="8" fill="url(#centerGradient)" filter="url(#softGlow)"/><g class="center-details" opacity=".7"><circle cx="50" cy="50" r="6" fill="none" stroke="rgba(214,158,46,0.8)" stroke-width=".5"/><circle cx="50" cy="50" r="4" fill="none" stroke="rgba(214,158,46,0.6)" stroke-width=".5"/><circle cx="50" cy="50" r="2" fill="rgba(214,158,46,0.9)"/></g><g fill="none" stroke="rgba(214,158,46,0.4)" stroke-width=".5" class="petal-veins" opacity=".3"><path d="M50,30 Q52,40 50,50" transform="rotate(0 50 50)"/><path d="M50,30 Q48,40 50,50" transform="rotate(0 50 50)"/><path d="M50,30 Q52,40 50,50" transform="rotate(45 50 50)"/><path d="M50,30 Q48,40 50,50" transform="rotate(45 50 50)"/><path d="M50,30 Q52,40 50,50" transform="rotate(90 50 50)"/><path d="M50,30 Q48,40 50,50" transform="rotate(90 50 50)"/><path d="M50,30 Q52,40 50,50" transform="rotate(135 50 50)"/><path d="M50,30 Q48,40 50,50" transform="rotate(135 50 50)"/><path d="M50,30 Q52,40 50,50" transform="rotate(180 50 50)"/><path d="M50,30 Q48,40 50,50" transform="rotate(180 50 50)"/><path d="M50,30 Q52,40 50,50" transform="rotate(225 50 50)"/><path d="M50,30 Q48,40 50,50" transform="rotate(225 50 50)"/><path d="M50,30 Q52,40 50,50" transform="rotate(270 50 50)"/><path d="M50,30 Q48,40 50,50" transform="rotate(270 50 50)"/><path d="M50,30 Q52,40 50,50" transform="rotate(315 50 50)"/><path d="M50,30 Q48,40 50,50" transform="rotate(315 50 50)"/></g></svg>