<svg xmlns="http://www.w3.org/2000/svg" width="400" height="50" fill="none" viewBox="0 0 400 50"><defs><radialGradient id="moonGlow" cx="50%" cy="50%" r="60%"><stop offset="0%" style="stop-color:rgba(246,213,92,.8);stop-opacity:1"/><stop offset="70%" style="stop-color:rgba(246,213,92,.4);stop-opacity:1"/><stop offset="100%" style="stop-color:transparent;stop-opacity:0"/></radialGradient><filter id="moonGlow"><feGaussianBlur result="coloredBlur" stdDeviation="2"/><feMerge><feMergeNode in="coloredBlur"/><feMergeNode in="SourceGraphic"/></feMerge></filter></defs><g class="new-moon" transform="translate(25, 25)"><circle cx="0" cy="0" r="18" fill="url(#moonGlow)" opacity=".3"/><circle cx="0" cy="0" r="12" fill="rgba(26,26,46,0.9)" stroke="rgba(246,213,92,0.3)" stroke-width="1"/></g><g class="waxing-crescent" transform="translate(75, 25)"><circle cx="0" cy="0" r="18" fill="url(#moonGlow)" opacity=".3"/><circle cx="0" cy="0" r="12" fill="rgba(26,26,46,0.9)" stroke="rgba(246,213,92,0.3)" stroke-width="1"/><path fill="rgba(246,213,92,0.8)" d="M0,-12 A12,12 0 0,1 0,12 A6,6 0 0,0 0,-12 Z" filter="url(#moonGlow)"/></g><g class="first-quarter" transform="translate(125, 25)"><circle cx="0" cy="0" r="18" fill="url(#moonGlow)" opacity=".3"/><circle cx="0" cy="0" r="12" fill="rgba(26,26,46,0.9)" stroke="rgba(246,213,92,0.3)" stroke-width="1"/><path fill="rgba(246,213,92,0.8)" d="M0,-12 A12,12 0 0,1 0,12 Z" filter="url(#moonGlow)"/></g><g class="waxing-gibbous" transform="translate(175, 25)"><circle cx="0" cy="0" r="18" fill="url(#moonGlow)" opacity=".3"/><circle cx="0" cy="0" r="12" fill="rgba(26,26,46,0.9)" stroke="rgba(246,213,92,0.3)" stroke-width="1"/><path fill="rgba(246,213,92,0.8)" d="M0,-12 A12,12 0 0,1 0,12 A4,4 0 0,1 0,-12 Z" filter="url(#moonGlow)"/></g><g class="full-moon" transform="translate(225, 25)"><circle cx="0" cy="0" r="18" fill="url(#moonGlow)" opacity=".5"/><circle cx="0" cy="0" r="12" fill="rgba(246,213,92,0.9)" filter="url(#moonGlow)"/><circle cx="0" cy="0" r="10" fill="none" stroke="rgba(246,213,92,0.6)" stroke-width=".5"/><circle cx="0" cy="0" r="8" fill="none" stroke="rgba(246,213,92,0.4)" stroke-width=".5"/></g><g class="waning-gibbous" transform="translate(275, 25)"><circle cx="0" cy="0" r="18" fill="url(#moonGlow)" opacity=".3"/><circle cx="0" cy="0" r="12" fill="rgba(246,213,92,0.8)" filter="url(#moonGlow)"/><path fill="rgba(26,26,46,0.9)" d="M0,-12 A4,4 0 0,1 0,12 A12,12 0 0,1 0,-12 Z"/></g><g class="last-quarter" transform="translate(325, 25)"><circle cx="0" cy="0" r="18" fill="url(#moonGlow)" opacity=".3"/><circle cx="0" cy="0" r="12" fill="rgba(246,213,92,0.8)" filter="url(#moonGlow)"/><path fill="rgba(26,26,46,0.9)" d="M0,-12 A12,12 0 0,1 0,12 Z"/></g><g class="waning-crescent" transform="translate(375, 25)"><circle cx="0" cy="0" r="18" fill="url(#moonGlow)" opacity=".3"/><circle cx="0" cy="0" r="12" fill="rgba(26,26,46,0.9)" stroke="rgba(246,213,92,0.3)" stroke-width="1"/><path fill="rgba(246,213,92,0.8)" d="M0,-12 A6,6 0 0,1 0,12 A12,12 0 0,1 0,-12 Z" filter="url(#moonGlow)"/></g></svg>